PathFileType   4   (X/Y/Z)																																																																																																																							
DataRate	CameraRate	NumFrames	NumMarkers	Units	OrigDataRate	OrigDataStartFrame	OrigNumFrames																																																																																																																
120	120	5	39	mm	120	98	156																																																																																																																
Frame#	Time	Sternum	R.Acromium	L.Acromium	Top.Head	R.ASIS	L.ASIS	V.Sacral	R.Thigh.Upper	R.Thigh.Front	R.Thigh.Rear	R.Knee.Lat	R.Knee.Med	R.Shank.Upper	R.Shank.Front	R.Shank.Rear	R.Ankle.Lat	R.Ankle.Med	R.Heel	R.Midfoot.Sup	R.Midfoot.Lat	R.Toe.Lat	R.Toe.Med	R.Toe.Tip	L.Thigh.Upper	L.Thigh.Front	L.Thigh.Rear	L.Knee.Lat	L.Knee.Med	L.Shank.Upper	L.Shank.Front	L.Shank.Rear	L.Ankle.Lat	L.Ankle.Med	L.Heel	L.Midfoot.Sup	L.Midfoot.Lat	L.Toe.Lat	L.Toe.Med	L.Toe.Tip																																																																															
 	 	X1	Y1	Z1	X2	Y2	Z2	X3	Y3	Z3	X4	Y4	Z4	X5	Y5	Z5	X6	Y6	Z6	X7	Y7	Z7	X8	Y8	Z8	X9	Y9	Z9	X10	Y10	Z10	X11	Y11	Z11	X12	Y12	Z12	X13	Y13	Z13	X14	Y14	Z14	X15	Y15	Z15	X16	Y16	Z16	X17	Y17	Z17	X18	Y18	Z18	X19	Y19	Z19	X20	Y20	Z20	X21	Y21	Z21	X22	Y22	Z22	X23	Y23	Z23	X24	Y24	Z24	X25	Y25	Z25	X26	Y26	Z26	X27	Y27	Z27	X28	Y28	Z28	X29	Y29	Z29	X30	Y30	Z30	X31	Y31	Z31	X32	Y32	Z32	X33	Y33	Z33	X34	Y34	Z34	X35	Y35	Z35	X36	Y36	Z36	X37	Y37	Z37	X38	Y38	Z38	X39	Y39	Z39	
																																																																																																																							
	98	1.075	2144.02284	-0.000992919	1252.840018	2028.36165	-160.4625222	1368.390335	2031.888696	163.6853836	1381.858338	2123.905396	-9.995724821	1623.181717	2139.505597	-119.563877	907.8991532	2144.541236	121.1976851	899.8817206	1961.376594	-5.695750883	927.6172774	2101.634026	-151.852957	642.8989568	2153.321241	-72.89581202	596.1525966	2101.167415	-144.0380039	542.3444049	2074.268094	-128.7803171	469.0074794	2073.957624	-28.27664901	455.108537	2054.980739	-139.9773559	392.2896346	2121.368156	-92.759033	364.8949058	2072.190346	-148.0192813	319.1215435	2085.735383	-126.2596959	71.96176109	2091.887281	-48.83628676	84.85183121	2024.487667	-81.79932302	51.87183893	2151.503551	-50.48617332	64.18058869	2147.143399	-145.6838404	46.57611389	2226.950671	-153.7519611	26.68946711	2228.816349	-57.55224411	38.32165103	2282.860457	-85.7250635	39.68411211	2088.213661	155.8898652	652.1502204	2155.784475	93.1736068	623.3309839	2087.771669	143.1256019	561.683689	2075.066824	130.2344758	452.5172463	2076.02818	33.90932835	453.1910496	2035.089397	146.028905	395.8099973	2026.480516	97.96343807	338.6328217	1996.808266	155.397025	383.2463976	1797.673362	125.837295	197.1467752	1815.422489	46.58044596	207.4221005	1754.309716	79.29350631	255.4749011	1821.849163	55.87355549	118.2799441	1814.867012	143.3687015	133.020874	1820.255049	152.6622596	73.47495294	1826.710886	62.03409965	59.80326065	1846.060053	84.48225282	20.67276353
	99	1.08333	2150.497093	-0.000992919	1252.757499	2035.065706	-160.4625222	1368.537381	2038.619502	163.6853836	1381.99835	2131.11548	-9.995724821	1623.138435	2145.307271	-119.563877	907.8525083	2150.32886	121.1976851	899.8262684	1967.213076	-5.695750883	927.8825816	2106.098173	-151.852957	642.6391992	2157.47327	-72.89581202	595.5500302	2104.962645	-144.0380039	542.0899764	2077.576054	-128.7803171	468.9336182	2077.17313	-28.27664901	455.0370487	2057.728244	-139.9773559	392.3617801	2123.901625	-92.759033	364.4540054	2074.370983	-148.0192813	319.0626713	2086.002494	-126.2596959	71.80544887	2092.253982	-48.83628676	84.64751456	2024.763256	-81.79932302	51.76614498	2151.794481	-50.48617332	63.91555526	2147.412249	-145.6838404	46.31656372	2227.194512	-153.7519611	26.32982167	2229.07478	-57.55224411	37.95965612	2283.120555	-85.7250635	39.25432275	2097.257195	155.8898652	653.2017787	2165.395536	93.1736068	625.7512814	2098.639967	143.1256019	562.7447358	2088.139551	130.2344758	453.3442488	2089.087121	33.90932835	454.0373052	2048.855398	146.028905	396.2324994	2040.697666	97.96343807	338.9892148	2010.674531	155.397025	383.3674177	1813.01334	125.837295	195.7032679	1830.680887	46.58044596	206.1182376	1767.934375	79.29350631	252.6321016	1839.77304	55.87355549	117.6386223	1832.328822	143.3687015	132.1516876	1839.594759	152.6622596	72.80563617	1846.479155	62.03409965	59.34465289	1867.054495	84.48225282	20.8447635
	100	1.09167	2156.892536	-0.000992919	1252.684055	2041.686871	-160.4625222	1368.688542	2045.266878	163.6853836	1382.142564	2138.232345	-9.995724821	1623.102038	2151.057027	-119.563877	907.8432807	2156.066832	121.1976851	899.8096805	1972.992417	-5.695750883	928.1346809	2110.519209	-151.852957	642.3935357	2161.576305	-72.89581202	594.9597572	2108.707165	-144.0380039	541.8542293	2080.828964	-128.7803171	468.8837968	2080.332546	-28.27664901	454.9902529	2060.426654	-139.9773559	392.4601712	2126.386398	-92.759033	364.0511514	2076.512804	-148.0192813	319.0369059	2086.268073	-126.2596959	71.69855301	2092.616812	-48.83628676	84.49281991	2025.038724	-81.79932302	51.70414361	2152.083972	-50.48617332	63.70602509	2147.681305	-145.6838404	46.11213448	2227.440304	-153.7519611	26.03275524	2229.334076	-57.55224411	37.66039831	2283.381318	-85.7250635	38.89230103	2106.199652	155.8898652	654.3152729	2174.869258	93.1736068	628.222198	2109.377023	143.1256019	563.9034763	2101.049426	130.2344758	454.3161758	2101.983058	33.90932835	455.0278977	2062.54432	146.028905	396.7382325	2054.972204	97.96343807	339.4145437	2024.496965	155.397025	383.4835052	1828.764569	125.837295	193.8084978	1846.324721	46.58044596	204.4035363	1781.877114	79.29350631	249.1679739	1858.275767	55.87355549	116.7018305	1850.341145	143.3687015	130.9526981	1859.625882	152.6622596	71.88882328	1866.965144	62.03409965	58.67034279	1888.840933	84.48225282	20.89421354
	101	1.1	2163.204796	-0.000992919	1252.624065	2048.218217	-160.4625222	1368.845719	2051.823603	163.6853836	1382.292962	2145.243554	-9.995724821	1623.076597	2156.759612	-119.563877	907.8786494	2161.760303	121.1976851	899.8393727	1978.718129	-5.695750883	928.3719817	2114.904876	-151.852957	642.1642365	2165.637722	-72.89581202	594.3838153	2112.408114	-144.0380039	541.6396037	2084.033568	-128.7803171	468.8607382	2083.442535	-28.27664901	454.9708977	2063.080202	-139.9773559	392.588205	2128.825519	-92.759033	363.6864125	2078.616486	-148.0192813	319.0466247	2086.520682	-126.2596959	71.6421992	2092.964981	-48.83628676	84.38860113	2025.303174	-81.79932302	51.68599115	2152.361028	-50.48617332	63.55366686	2147.939779	-145.6838404	45.96443665	2227.677524	-153.7519611	25.80081843	2229.583577	-57.55224411	37.4264546	2283.63209	-85.7250635	38.60126603	2115.039571	155.8898652	655.4860897	2184.203807	93.1736068	630.7338827	2119.975253	143.1256019	565.153218	2113.781193	130.2344758	455.4246487	2114.700802	33.90932835	456.1543992	2076.14161	146.028905	397.3219131	2069.289988	97.96343807	339.9076508	2038.263715	155.397025	383.5904151	1844.928779	125.837295	191.4722689	1862.354489	46.58044596	202.2870003	1796.171802	79.29350631	245.0986819	1877.318746	55.87355549	115.4869284	1868.87311	143.3687015	129.4410206	1880.291275	152.6622596	70.75223823	1888.104544	62.03409965	57.80828925	1911.334372	84.48225282	20.84937749
	102	1.10833	2169.433531	-0.000992919	1252.578975	2054.657997	-160.4625222	1369.009055	2058.287774	163.6853836	1382.449734	2152.144418	-9.995724821	1623.063485	2162.41935	-119.563877	907.9609319	2167.413776	121.1976851	899.9177619	1984.393886	-5.695750883	928.5929578	2119.26172	-151.852957	641.9518946	2169.664129	-72.89581202	593.8230306	2116.072347	-144.0380039	541.4468523	2087.196989	-128.7803171	468.8652308	2086.510261	-28.27664901	454.9797925	2065.693808	-139.9773559	392.7473689	2131.222617	-92.759033	363.3579911	2080.683366	-148.0192813	319.0924079	2086.749525	-126.2596959	71.636093	2093.288332	-48.83628676	84.3342724	2025.546136	-81.79932302	51.71095735	2152.615181	-50.48617332	63.45820977	2148.177264	-145.6838404	45.87317765	2227.895863	-153.7519611	25.63399775	2229.812933	-57.55224411	37.25782225	2283.862536	-85.7250635	38.38140915	2123.774353	155.8898652	656.7071808	2193.396726	93.1736068	633.2745421	2130.426738	143.1256019	566.4844872	2126.320184	130.2344758	456.6579807	2127.225752	33.90932835	457.4050848	2089.633134	146.028905	397.9760173	2083.63616	97.96343807	340.4662049	2051.963649	155.397025	383.6827018	1861.507359	125.837295	188.7104444	1878.770301	46.58044596	199.7831422	1810.848241	79.29350631	240.4462092	1896.867633	55.87355549	114.0156056	1887.897215	143.3687015	127.638273	1901.539982	152.6622596	69.42639636	1909.840058	62.03409965	56.7890819	1934.459204	84.48225282	20.74072888
